<svg id="Ebene_1" data-name="Ebene 1" xmlns="http://www.w3.org/2000/svg" viewBox="0 0 1000 1000"><defs><style>.cls-1{fill:#1d1d1b;}</style></defs><title>campus arcade logo</title><path class="cls-1" d="M387.08,591.44l-44.65,99.45h36.82l6.23-16.52h20l-.73,16.52H441L438,591.44Zm19.42,56.4H395.2c4.06-11.75,8.12-23.2,11.88-35.81h1.45C407.66,623.48,406.94,640.15,406.5,647.84Z"/><path class="cls-1" d="M518.26,591.44h-47l-21.16,99.45h35.23L493,654.65h6.09c6.09,0,8.41,3.77,6.09,14.21-2.9,13.19-3.05,21.31-2.9,22h34.5c0-.14-.44-3.77,2.9-19.57,3.77-18.26-.58-24.64-8-28.7,11.45-3.19,20.87-11.75,20.87-26S542.47,591.44,518.26,591.44Zm-14.06,41h-6.52l4.06-19h5.8c5.21,0,7.82,2.75,7.82,8S512.75,632.47,504.2,632.47Z"/><path class="cls-1" d="M597.69,693.5c28,0,44.36-13.63,50.6-34.79H612.05c-2,5.8-4.21,10.44-10.73,10.44-4.93,0-7.1-4.64-7.1-11.74,0-16.24,5.94-44.51,17.25-44.51,6.67,0,7.25,4.93,6.52,12.47h36.24c.73-15.8-7-36.54-41.75-36.54-41.75,0-56.1,37.12-56.1,63.65C556.38,676,567.54,693.5,597.69,693.5Z"/><path class="cls-1" d="M690.75,591.44,646.1,690.89h36.82l6.24-16.52h20l-.72,16.52h36.24l-3-99.45Zm19.43,56.4H698.87c4.06-11.75,8.12-23.2,11.89-35.81h1.45C711.34,623.48,710.61,640.15,710.18,647.84Z"/><path class="cls-1" d="M815.7,591.44H774.82l-21.16,99.45h48.71c39.57,0,55.52-29,55.52-59.14C857.89,609,843.68,591.44,815.7,591.44Zm-13.62,76.11h-7l11.3-52.77h4.07c7,0,9.71,4.06,9.71,12.76C820.2,637,816.57,667.55,802.08,667.55Z"/><polygon class="cls-1" points="880.06 591.44 858.89 690.89 935.87 690.89 943.7 666.39 898.9 666.39 901.66 653.35 939.78 653.35 945.14 628.7 907.02 628.7 909.63 616.09 949.35 616.09 954.57 591.44 880.06 591.44"/><polygon class="cls-1" points="398.15 420.57 387.08 431.65 387.08 549.79 398.15 560.86 425.47 560.86 436.55 549.79 436.55 518.04 418.83 518.04 418.83 542.03 415.13 545.73 408.49 545.73 404.8 542.03 404.8 439.03 408.49 435.34 415.13 435.34 418.83 439.03 418.83 463.21 436.55 463.21 436.55 431.65 425.47 420.57 398.15 420.57"/><path class="cls-1" d="M461.65,560.86l3.51-36.18h16.25l3.5,36.18h18.46L486.21,420.57H460.73l-16.8,140.29Zm11.63-122,6.83,70.7H466.45Z"/><polygon class="cls-1" points="529.59 450.85 543.43 560.86 560.97 560.86 574.81 450.85 574.81 560.86 591.61 560.86 591.61 420.57 565.4 420.57 552.29 533.91 539.19 420.57 513.53 420.57 513.53 560.86 529.59 560.86 529.59 450.85"/><path class="cls-1" d="M623.92,504.75h22.34l11.07-11.08v-62l-11.07-11.08H606.2V560.86h17.72Zm0-69.41h12l3.69,3.69v47.26L635.92,490h-12Z"/><polygon class="cls-1" points="709.76 560.86 720.83 549.79 720.83 420.57 703.11 420.57 703.11 542.03 699.42 545.73 690.38 545.73 686.68 542.03 686.68 420.57 668.96 420.57 668.96 549.79 680.04 560.86 709.76 560.86"/><polygon class="cls-1" points="772.7 560.86 783.78 549.79 783.78 493.3 772.7 482.23 755.35 482.23 751.66 478.53 751.66 439.03 755.35 435.34 761.81 435.34 765.5 439.03 765.5 461.18 783.22 461.18 783.22 431.65 772.15 420.57 745.01 420.57 733.94 431.65 733.94 486.29 745.01 497.36 762.37 497.36 766.06 501.05 766.06 542.4 762.37 546.09 754.98 546.09 751.29 542.4 751.29 520.43 733.57 520.43 733.57 549.79 744.65 560.86 772.7 560.86"/><path class="cls-1" d="M350.27,388.37l.54-1.76a6.59,6.59,0,0,1,1.55-10.25v-23.2a1.51,1.51,0,0,0,0-.32s.07-5.59-7.06-4.46l-1.43-.51,0,0L226.6,306.5,45.43,370.45l85.43,29.63,4.44-21.85.2-1,.74-.71c.87-.83,21.61-19.84,86-20.71-39.91,2.33-74.66,13.69-83.71,23.08L134,401.16,125,445.07a56,56,0,0,1,9.57-3.2A100.26,100.26,0,0,1,149,440.25q3.9-.19,7.94-.19c30.34,0,65.23,7.39,69.67,7.39h.13c4.43,0,39.29-7.37,69.62-7.37,2.71,0,5.4.06,8,.19A97.68,97.68,0,0,1,319.24,442a61.74,61.74,0,0,1,9,3l-8.9-43.87-4.53-22.23c-9-9.39-43.8-20.75-83.7-23.08,64.35.87,85.09,19.88,86,20.71l.74.71.2,1L322.48,400l27.08-9.38Z"/><path class="cls-1" d="M362.24,382.08a6.58,6.58,0,0,1-1.79,4.53l.08.24,47.25-16.4-50.66-17.89v23.09A6.6,6.6,0,0,1,362.24,382.08Z"/><path class="cls-1" d="M347.25,461.72a58.27,58.27,0,0,0-19-13.17h0a59.45,59.45,0,0,0-9-3,97.64,97.64,0,0,0-14.88-1.7c-2.61-.13-5.3-.19-8-.19-30.33,0-65.19,7.37-69.62,7.37h-.13c-4.44,0-39.33-7.38-69.67-7.38q-4,0-7.94.18a101.7,101.7,0,0,0-14.38,1.62,56,56,0,0,0-9.57,3.2,58.53,58.53,0,1,0,59.69,99.51h84a58.43,58.43,0,0,0,78.51-5.21Zm-180,44.38a3.25,3.25,0,0,1-3.27,3.27H152v12a3.26,3.26,0,0,1-3.27,3.26H140a3.26,3.26,0,0,1-3.27-3.26v-12h-12a3.26,3.26,0,0,1-3.27-3.27v-8.69a3.26,3.26,0,0,1,3.27-3.26h12v-12a3.27,3.27,0,0,1,3.27-3.26h8.7a3.26,3.26,0,0,1,3.27,3.26v12h12a3.26,3.26,0,0,1,3.27,3.26Zm40.42,2-13.06,9.08a3.16,3.16,0,0,1-1.82.57,3.2,3.2,0,0,1-1.84-5.83L204,502.83a3.18,3.18,0,0,1,5,2.63A3.17,3.17,0,0,1,207.67,508.09Zm30.34,0L225,517.17a3.2,3.2,0,0,1-3.66-5.26l13.08-9.08a3.18,3.18,0,0,1,1.81-.57,3.23,3.23,0,0,1,2.65,1.39,3.28,3.28,0,0,1,.55,1.81A3.17,3.17,0,0,1,238,508.09Zm40.51,3.69a9.45,9.45,0,1,1,9.47-9.45A9.46,9.46,0,0,1,278.52,511.78Zm26.64,20.12a9.47,9.47,0,1,1,9.46-9.47A9.49,9.49,0,0,1,305.16,531.9Zm0-40.22a9.47,9.47,0,1,1,9.46-9.47A9.48,9.48,0,0,1,305.16,491.68Zm26.63,20.1a9.45,9.45,0,1,1,9.47-9.45A9.46,9.46,0,0,1,331.79,511.78Z"/><path class="cls-1" d="M354.63,385.28l-1.24,4-2.87,9.25V568.73h10.22V398.57l-3.3-10.65-.81-2.64a3.35,3.35,0,1,0-2,0Z"/></svg>